<svg xmlns="http://www.w3.org/2000/svg" width="326" height="356" fill="none" viewBox="0 0 326 356">
  <path fill="#000" d="M232.155 142.855c1.09 4.2-.134 8.665-3.212 11.717l-5.64 5.592c-5.516 5.468-14.869 2.893-16.826-4.633L169.404 12.928c-2.252-8.666 7.028-15.764 14.769-11.296l8.902 5.138a12.165 12.165 0 0 1 5.691 7.48l33.389 128.605ZM150.878 12.816c-1.874-7.212-10.092-10.643-16.518-6.896-8.611 5.02-6.928 17.959 2.679 20.597 8.334 2.288 16.017-5.318 13.839-13.701Zm3.326 36.573a12.153 12.153 0 0 1 8.55 8.673l2.03 7.818c1.952 7.518-4.941 14.336-12.413 12.278L78.912 57.925c-8.624-2.376-10.11-14.002-2.362-18.48l8.895-5.143a12.111 12.111 0 0 1 9.26-1.198l59.499 16.285Zm21.803 59.523a12.152 12.152 0 0 0-8.516-8.647L39.703 64.951a12.111 12.111 0 0 0-9.308 1.2l-8.889 5.16c-7.73 4.488-6.239 16.094 2.373 18.47l141.724 39.115c7.479 2.064 14.38-4.768 12.414-12.292l-2.01-7.692ZM.272 116.919c-.024-7.453 7.05-12.872 14.216-10.894 8.33 2.301 11.06 12.775 4.916 18.866-7.082 7.022-19.101 2.014-19.132-7.972Zm59.24 1.419a12.117 12.117 0 0 0-11.767 3.086L3.928 164.94a12.186 12.186 0 0 0-3.596 8.639l-.005 10.294c-.005 8.966 10.781 13.489 17.145 7.189l54.208-53.661c5.514-5.458 3.07-14.853-4.4-16.917l-7.768-2.146Zm38.823 16.988a12.117 12.117 0 0 1 11.729-3.07l7.65 2.101c7.482 2.055 9.934 11.463 4.411 16.924l-104.65 103.49c-6.36 6.288-17.132 1.78-17.143-7.175L.32 237.298a12.184 12.184 0 0 1 3.617-8.681l94.4-93.291Zm-.993 65.617a12.19 12.19 0 0 0-3.212 11.718l33.389 128.604a12.164 12.164 0 0 0 5.691 7.481l8.902 5.138c7.741 4.467 17.022-2.631 14.769-11.296l-37.073-142.604c-1.957-7.525-11.31-10.1-16.826-4.632l-5.64 5.591Zm53.055 45.257a12.152 12.152 0 0 0 8.516 8.647l127.788 35.314c3.138.867 6.491.434 9.308-1.201l8.889-5.159c7.73-4.488 6.239-16.094-2.373-18.471l-141.724-39.114c-7.479-2.064-14.38 4.768-12.414 12.292l2.01 7.692Zm13.253 50.849a12.153 12.153 0 0 0 8.55 8.674l59.499 16.285c3.123.854 6.456.423 9.26-1.198l8.896-5.142c7.747-4.479 6.261-16.105-2.363-18.481l-73.459-20.233c-7.472-2.058-14.365 4.76-12.413 12.278l2.03 7.817Zm28.393 52.143c-6.425 3.747-14.644.316-16.518-6.896-2.178-8.383 5.505-15.99 13.839-13.701 9.607 2.638 11.29 15.577 2.679 20.597ZM56.826 249.634a12.19 12.19 0 0 1 3.217-11.76l5.738-5.671c5.518-5.454 14.856-2.878 16.814 4.638l19.251 73.895c2.259 8.675-7.04 15.778-14.784 11.291l-8.89-5.151a12.165 12.165 0 0 1-5.664-7.442l-15.682-59.8Zm-29.93 21.174c-5.293 5.233-4.148 14.084 2.301 17.79 8.642 4.965 18.978-2.965 16.453-12.625-2.19-8.38-12.602-11.247-18.754-5.165Zm239.346-153.166a12.19 12.19 0 0 0 3.217-11.76l-15.682-59.8a12.163 12.163 0 0 0-5.665-7.442l-8.889-5.151C231.48 29 222.18 36.105 224.44 44.78l19.25 73.895c1.958 7.516 11.296 10.092 16.814 4.638l5.738-5.671Zm30.846-50.724c6.449 3.706 7.594 12.557 2.301 17.79-6.152 6.082-16.564 3.215-18.754-5.165-2.525-9.66 7.811-17.59 16.453-12.625Zm-81.152 156.226a12.116 12.116 0 0 0 11.728-3.07l94.399-93.291a12.182 12.182 0 0 0 3.617-8.681l-.012-10.298c-.012-8.955-10.783-13.463-17.142-7.175l-104.651 103.49c-5.523 5.461-3.071 14.869 4.411 16.924l7.65 2.101Zm62.32 10.832a12.116 12.116 0 0 1-11.767 3.086l-7.768-2.146c-7.47-2.064-9.914-11.459-4.4-16.917l54.208-53.661c6.364-6.299 17.15-1.777 17.145 7.189l-.005 10.294a12.185 12.185 0 0 1-3.596 8.639l-43.817 43.516Zm33.257 15.399c7.167 1.979 14.24-3.441 14.216-10.893-.031-9.986-12.05-14.994-19.132-7.972-6.144 6.091-3.415 16.565 4.916 18.865Z"/>
</svg>